<svg width="332" height="251" viewBox="0 0 332 251" fill="none" xmlns="http://www.w3.org/2000/svg">
<g clip-path="url(#clip0_3_29)">
<path d="M22.5916 181.934L23.3609 180.341L55.7586 81.0434L55.6981 80.0593L28.0761 43.6784C25.761 40.6311 20.9515 42.2997 20.9973 46.1347L22.5916 181.934Z" fill="#FFC24A"/>
<path d="M76.017 107.673L88.9483 88.8856L68.2944 61.305C66.3352 58.6949 62.1912 59.3757 61.2002 62.4858L55.5303 79.9846L55.7586 81.3563L76.0166 107.673L76.017 107.673Z" fill="#F4BD62"/>
<path d="M22.5915 181.933L22.9704 181.393L24.5147 180.436L75.2136 108.906L75.6318 106.653L55.5598 79.89L22.5915 181.933Z" fill="#F6820C"/>
<path d="M93.7087 201.915L143.663 161.637L111.595 66.1783C110.592 63.1918 106.668 62.5982 104.863 65.1597L22.5915 181.934L82.5596 203.768C84.4236 204.447 86.4265 204.633 88.378 204.308C90.3294 203.984 92.1645 203.16 93.7087 201.915" fill="#FDE068"/>
<path d="M143.126 161.458L111.301 66.7246C110.306 63.7603 107.001 63.0156 105.209 65.558L23.1714 181.641L82.4867 203.269C84.3365 203.942 86.3242 204.127 88.2607 203.805C90.1973 203.483 92.0185 202.665 93.551 201.43L143.126 161.458L143.126 161.458Z" fill="#FCCA3F"/>
<path d="M93.5556 200.998C92.0115 202.243 90.1765 203.067 88.2252 203.392C86.2738 203.716 84.271 203.53 82.4071 202.851L22.9545 181.389L22.592 181.933L82.5596 203.768C84.4236 204.447 86.4265 204.633 88.378 204.308C90.3294 203.984 92.1645 203.16 93.7087 201.915L143.664 161.637L143.389 160.819L93.5562 200.999L93.5556 200.998Z" fill="#EEAB37"/>
</g>
<g opacity="0.2" filter="url(#filter0_f_3_29)">
<path d="M217.816 39.2747C265.461 45.5018 299.035 89.1662 292.809 136.805C286.583 184.444 242.914 218.013 195.269 211.786C181.311 209.981 168.002 204.803 156.494 196.7L118.227 201.498C116.948 201.658 115.65 201.482 114.46 200.986C113.271 200.49 112.232 199.692 111.446 198.671C110.66 197.65 110.154 196.441 109.98 195.164C109.805 193.888 109.967 192.587 110.449 191.393L124.912 155.656C120.022 142.438 118.431 128.227 120.276 114.256C126.502 66.6167 170.171 33.0477 217.816 39.2747ZM216.216 135.568L177.379 130.492L176.491 130.437C174.914 130.448 173.395 131.029 172.214 132.073C171.033 133.117 170.269 134.553 170.065 136.116C169.861 137.679 170.229 139.263 171.103 140.575C171.976 141.888 173.295 142.839 174.816 143.255L175.688 143.43L214.525 148.506L215.404 148.56C216.98 148.549 218.5 147.968 219.681 146.924C220.862 145.88 221.625 144.444 221.83 142.881C222.034 141.318 221.665 139.734 220.792 138.422C219.919 137.109 218.6 136.157 217.079 135.742L216.216 135.568ZM237.397 107.631L181.324 100.302L180.436 100.248C178.86 100.258 177.341 100.839 176.16 101.883C174.978 102.927 174.215 104.363 174.011 105.926C173.807 107.489 174.175 109.073 175.048 110.386C175.922 111.698 177.241 112.65 178.761 113.065L179.633 113.241L235.706 120.569L236.594 120.624C238.171 120.613 239.69 120.032 240.871 118.988C242.052 117.945 242.816 116.508 243.02 114.945C243.224 113.382 242.856 111.798 241.982 110.486C241.109 109.174 239.79 108.222 238.269 107.806L237.397 107.631Z" fill="url(#paint0_linear_3_29)"/>
</g>
<path d="M217.816 39.2747C265.461 45.5018 299.035 89.1662 292.809 136.805C286.583 184.444 242.914 218.013 195.269 211.786C181.311 209.981 168.002 204.803 156.494 196.7L118.227 201.498C116.948 201.658 115.65 201.482 114.46 200.986C113.271 200.49 112.232 199.692 111.446 198.671C110.66 197.65 110.154 196.441 109.98 195.164C109.805 193.888 109.967 192.587 110.449 191.393L124.912 155.656C120.022 142.438 118.431 128.227 120.276 114.256C126.502 66.6167 170.171 33.0477 217.816 39.2747ZM216.216 135.568L177.379 130.492L176.491 130.437C174.914 130.448 173.395 131.029 172.214 132.073C171.033 133.117 170.269 134.553 170.065 136.116C169.861 137.679 170.229 139.263 171.103 140.575C171.976 141.888 173.295 142.839 174.816 143.255L175.688 143.43L214.525 148.506L215.404 148.56C216.98 148.549 218.5 147.968 219.681 146.924C220.862 145.88 221.625 144.444 221.83 142.881C222.034 141.318 221.665 139.734 220.792 138.422C219.919 137.109 218.6 136.157 217.079 135.742L216.216 135.568ZM237.397 107.631L181.324 100.302L180.436 100.248C178.86 100.258 177.341 100.839 176.16 101.883C174.978 102.927 174.215 104.363 174.011 105.926C173.807 107.489 174.175 109.073 175.048 110.386C175.922 111.698 177.241 112.65 178.761 113.065L179.633 113.241L235.706 120.569L236.594 120.624C238.171 120.613 239.69 120.032 240.871 118.988C242.052 117.945 242.816 116.508 243.02 114.945C243.224 113.382 242.856 111.798 241.982 110.486C241.109 109.174 239.79 108.222 238.269 107.806L237.397 107.631Z" fill="url(#paint1_linear_3_29)"/>
<defs>
<filter id="filter0_f_3_29" x="71.9112" y="0.531158" width="259.641" height="249.999" filterUnits="userSpaceOnUse" color-interpolation-filters="sRGB">
<feFlood flood-opacity="0" result="BackgroundImageFix"/>
<feBlend mode="normal" in="SourceGraphic" in2="BackgroundImageFix" result="shape"/>
<feGaussianBlur stdDeviation="19" result="effect1_foregroundBlur_3_29"/>
</filter>
<linearGradient id="paint0_linear_3_29" x1="217.816" y1="39.2747" x2="195.266" y2="211.807" gradientUnits="userSpaceOnUse">
<stop stop-color="#74C0FC"/>
<stop offset="0.302083" stop-color="#339AF0"/>
<stop offset="1" stop-color="#1C7ED6"/>
</linearGradient>
<linearGradient id="paint1_linear_3_29" x1="217.816" y1="39.2747" x2="195.266" y2="211.807" gradientUnits="userSpaceOnUse">
<stop stop-color="#74C0FC"/>
<stop offset="0.302083" stop-color="#339AF0"/>
<stop offset="1" stop-color="#1C7ED6"/>
</linearGradient>
<clipPath id="clip0_3_29">
<rect width="123.052" height="170.661" fill="white" transform="translate(0 46.2033) rotate(-9.44994)"/>
</clipPath>
</defs>
</svg>
